<?xml version="1.0" encoding="utf-8"?>
<!-- Generator: Adobe Illustrator 26.0.0, SVG Export Plug-In . SVG Version: 6.00 Build 0)  -->
<svg version="1.1" id="Layer_1" xmlns="http://www.w3.org/2000/svg" xmlns:xlink="http://www.w3.org/1999/xlink" x="0px" y="0px"
	 viewBox="0 0 612.1 154.5" style="enable-background:new 0 0 612.1 154.5;" xml:space="preserve">
<style type="text/css">
	.st0{fill:#8A0026;}
	.st1{fill:#FFFFFF;}
</style>
<path class="st0" d="M136.9,138.3l-56.3,14.6c-6.8,1.8-14.1-0.2-19.1-5.3l-40.8-41.4c-5-5-6.9-12.4-5-19.2l15.5-56
	c1.9-6.8,7.3-12.1,14.1-13.9l56.3-14.6c6.8-1.8,14.1,0.2,19.1,5.3l40.8,41.4c5,5,6.9,12.4,5,19.2l-15.5,56
	C149.1,131.2,143.7,136.5,136.9,138.3z"/>
<g>
	<path class="st1" d="M59.3,43.8c0-5.7,1.4-7.3,7.3-7.3h50.9c5.7,0,7.3,1.6,7.3,7.3V45c0,5.9-1.6,7.3-7.3,7.3h-16.9v59
		c0,5.7-1.6,7.3-7.3,7.3h-2.4c-5.9,0-7.3-1.6-7.3-7.3v-59H66.6c-5.9,0-7.3-1.4-7.3-7.3V43.8z"/>
</g>
<g>
	<path class="st1" d="M142.9,83.9v9.4c0,1.6,0.8,2.5,2.5,2.5h19.9c3.7,0,4.8,0.9,4.8,4.8v0.7c0,3.7-1.1,4.8-4.8,4.8h-23.5
		c-6.9,0-9.8-3-9.8-9.8V62.6c0-6.9,3-9.8,9.8-9.8h23.5c3.7,0,4.8,1.1,4.8,4.8v0.7c0,3.9-1.1,4.8-4.8,4.8h-19.9
		c-1.6,0-2.5,0.8-2.5,2.5v8.2H162c3.7,0,4.8,0.9,4.8,4.8v0.7c0,3.7-1.1,4.8-4.8,4.8H142.9z"/>
	<path class="st1" d="M179.7,57.5c0-3.7,0.9-4.8,4.8-4.8h1.5c3.9,0,4.8,1.1,4.8,4.8v35.8c0,1.6,0.8,2.5,2.5,2.5h16.6
		c3.7,0,4.8,0.9,4.8,4.8v0.7c0,3.7-1.1,4.8-4.8,4.8h-20.2c-6.9,0-9.8-3-9.8-9.8V57.5z"/>
	<path class="st1" d="M222.2,57.5c0-3.7,0.9-4.8,4.8-4.8h1.5c3.9,0,4.8,1.1,4.8,4.8v43.8c0,3.7-0.9,4.8-4.8,4.8h-1.5
		c-3.9,0-4.8-1.1-4.8-4.8V57.5z M249.6,56.4c2.4-3,3.9-3.7,7.7-3.7h3.5c3.9,0,4.2,0.7,1.8,3.7l-12.7,15.9c-2.2,2.8-3.4,4.4-3.6,5
		c-0.1,0.3-0.2,0.7-0.2,1c0,0.6,0.2,1.1,0.5,1.6l3.3,4.2l14.3,18.2c2.4,3,2,3.8-1.8,3.8H259c-3.9,0-5.3-0.7-7.7-3.8l-11.9-15.1
		c-2.5-3.2-3.8-6.2-3.8-9.2c0-2.9,1.2-5.8,3.8-8.9L249.6,56.4z"/>
	<path class="st1" d="M269.3,73.8c0-7,1.6-12.4,5-16.1s9.2-5.7,17.6-5.7c8.4,0,14.3,1.9,17.6,5.7c3.4,3.8,5,9.2,5,16.1v11.5
		c0,7-1.6,12.4-5,16.1c-3.4,3.8-9.2,5.7-17.6,5.7c-8.4,0-14.3-1.9-17.6-5.7c-3.4-3.8-5-9.2-5-16.1V73.8z M303.5,73.8
		c0-4.1-0.7-7-2.3-8.9c-1.6-1.8-4.6-2.7-9.3-2.7c-4.7,0-7.7,0.9-9.3,2.7c-1.6,1.8-2.3,4.8-2.3,8.9v11.5c0,4.1,0.7,7,2.3,8.9
		c1.6,1.8,4.6,2.7,9.3,2.7c4.7,0,7.7-0.9,9.3-2.7c1.6-1.8,2.3-4.8,2.3-8.9V73.8z"/>
	<path class="st1" d="M385.2,101.3c0.2,3.9-0.7,4.8-4.4,4.8h-1.6c-3.9,0-4.8-1.1-5.1-4.8l-2.3-35.1c-0.2-3.4-0.5-4.1-1.9-4.1
		c-1.3,0-1.7,0.7-2.1,4.1L364,96.3c-0.4,3.7-1.4,6.3-2.9,7.7c-1.4,1.4-3.9,2-7.6,2c-6.3,0-9.5-2.2-10.5-9.8l-3.9-30.1
		c-0.4-3.4-0.8-4.1-2.1-4.1s-1.6,0.7-1.9,4.1l-2.2,35.1c-0.2,3.7-1.2,4.8-5.1,4.8h-1.6c-3.7,0-4.7-0.9-4.4-4.8l2.6-35.9
		c0.7-8.9,4.3-13.1,12.5-13.1c7.6,0,11.2,3.9,12.2,13.1l3,28.9c0.2,2.4,0.4,2.7,1.4,2.7s1.1-0.3,1.4-2.7l3-28.9
		c0.9-9.1,4.5-13.1,12.1-13.1c8.4,0,11.9,4,12.5,13.1L385.2,101.3z"/>
	<path class="st1" d="M403.4,86.4c0,6.5,3,10.3,12.4,10.3c3,0,5.9-0.4,8.9-1.2c3.6-1,4.6-0.2,4.6,3.7v0.7c0,3.7-0.9,4.6-4.5,5.9
		c-2.4,0.8-5.5,1.2-9.4,1.2c-15.4,0-23.2-6.1-23.2-20.6V73.3c0-13.4,7.8-21.4,23.3-21.4c3.9,0,6.9,0.5,9.3,1.4
		c3.7,1.4,4.6,2.3,4.6,5.9v0.7c0,3.9-1.1,4.8-4.8,3.7c-3-0.9-6.1-1.4-9.1-1.4c-8.4,0-12,3.5-12,11.1V86.4z"/>
	<path class="st1" d="M482.6,101.4c1,3.7,0.3,4.6-3.5,4.6h-1.6c-3.9,0-5-0.9-6-4.6l-2.1-8.4h-21.6l-2.1,8.4c-1,3.7-2.1,4.6-6,4.6
		h-1.6c-3.9,0-4.5-0.9-3.5-4.6l9.2-33.9c1.6-6.1,2.5-8.7,4.8-11.6c2.2-3,5.2-3.9,10.1-3.9s7.9,1,10.1,3.9c2.2,3,3.1,5.5,4.8,11.6
		L482.6,101.4z M450.3,83.2h16.5L462.8,68c-0.7-2.7-1.3-4.3-1.7-5.1s-1.3-1.1-2.5-1.1s-2.1,0.4-2.5,1.1s-1,2.4-1.7,5.1L450.3,83.2z"
		/>
	<path class="st1" d="M520.8,85.9l10.7,16.1c2,3,1.7,3.9-2.1,3.9h-3.1c-3.7,0-5.2-0.8-7.4-4l-10-15.2h-7.5v14.5
		c0,3.7-0.9,4.8-4.8,4.8h-1.5c-3.9,0-4.8-1.1-4.8-4.8V62.6c0-6.9,3-9.8,9.8-9.8h13.4c12,0,18.1,5.7,18.1,17
		C531.9,78.7,528.2,84.1,520.8,85.9z M504,63c-1.6,0-2.5,0.8-2.5,2.5v11.1h12.3c4.8,0,7.1-2.2,7.1-6.7c0-4.6-2-6.8-7.1-6.8H504z"/>
	<path class="st1" d="M553.4,83.9v9.4c0,1.6,0.8,2.5,2.5,2.5h19.9c3.7,0,4.8,0.9,4.8,4.8v0.7c0,3.7-1.1,4.8-4.8,4.8h-23.5
		c-6.9,0-9.8-3-9.8-9.8V62.6c0-6.9,3-9.8,9.8-9.8h23.5c3.7,0,4.8,1.1,4.8,4.8v0.7c0,3.9-1.1,4.8-4.8,4.8h-19.9
		c-1.6,0-2.5,0.8-2.5,2.5v8.2h19.1c3.7,0,4.8,0.9,4.8,4.8v0.7c0,3.7-1.1,4.8-4.8,4.8H553.4z"/>
</g>
</svg>
